<svg xmlns="http://www.w3.org/2000/svg" xmlns:xlink="http://www.w3.org/1999/xlink" xmlns:lucid="lucid" width="1760" height="1360"><g transform="translate(0 0)" lucid:page-tab-id="0_0"><path d="M480 217h160v120H480z" stroke="#000" stroke-width="2" fill="#ffc374"/><use xlink:href="#a" transform="matrix(1,0,0,1,485,222) translate(36.55 58.6)"/><path d="M641 277l163.36-144.9" stroke="#000" stroke-width="2" fill="none"/><path d="M641.66 277.75l-1.66 1.47v-2.67l.34-.3zM807.98 135.08l-6.15-6.93 13.75-6z"/><path d="M808.15 136.77l-7.98-9L818 120zm-4.66-8.26l4.32 4.9 5.34-9.1z"/><use xlink:href="#b" transform="matrix(1,0,0,1,656.6729577602804,182.22454259080973) translate(0 14.4)"/><path d="M819 60h160v120H819z" stroke="#000" stroke-width="2" fill="#ffc374"/><use xlink:href="#c" transform="matrix(1,0,0,1,824,65) translate(40.574999999999996 58.6)"/><path d="M641 277h158.76" stroke="#000" stroke-width="2" fill="none"/><path d="M641 278h-1v-2h1zM814.76 277l-14.26 4.64v-9.28z"/><path d="M818 277l-18.5 6v-12zm-16.5 3.26l10.03-3.26-10.03-3.26z"/><use xlink:href="#d" transform="matrix(1,0,0,1,692.55,251.39999999999998) translate(0 14.4)"/><path d="M819 217h160v120H819z" stroke="#000" stroke-width="2" fill="#ffc374"/><use xlink:href="#e" transform="matrix(1,0,0,1,824,222) translate(26.049999999999997 58.6)"/><path d="M501 520.76h-2v-50.18h2zm0-71.78h-2V338h2zM501 338h-2v-1h2zM500 535.76l-4.64-14.26h9.28z"/><path d="M500 539l-6-18.5h12zm-3.26-16.5l3.26 10.03 3.26-10.03z"/><use xlink:href="#f" transform="matrix(1,0,0,1,460.55,448.9778827977315) translate(0 14.4)"/><path d="M420 540h160v120H420z" stroke="#000" stroke-width="2" fill="#ffc374"/><use xlink:href="#g" transform="matrix(1,0,0,1,425,545) translate(33.074999999999996 58.6)"/><path d="M60 60h160v120H60z" stroke="#000" stroke-width="2" fill="#ffc374"/><use xlink:href="#h" transform="matrix(1,0,0,1,65,65) translate(44.025 58.6)"/><path d="M221 120l242.42 147.52" stroke="#000" stroke-width="2" fill="none"/><path d="M221.52 119.15l-1.04 1.7-.48-.3v-2.33zM476.24 275.32l-14.6-3.46 4.82-7.92z"/><path d="M479 277l-18.93-4.48 6.25-10.27zm-15.8-5.8l10.27 2.44-6.87-8z"/><use xlink:href="#i" transform="matrix(1,0,0,1,313.7719710426777,156.85073123772275) translate(0 14.4)"/><path d="M512 216l.2-7.1.55-6.32.82-5.68 1.04-5.1 1.23-4.6 1.36-4.13 1.46-3.74 1.56-3.4 1.63-3.04 1.7-2.78 1.72-2.5 1.77-2.27 1.8-2.05 1.8-1.84 1.85-1.65 1.83-1.48 1.86-1.32 1.85-1.17 1.87-1.03 1.87-.9 1.86-.76 1.87-.64 1.88-.52 1.88-.4 1.88-.3 1.87-.2 1.88-.08 1.88.03 1.88.14 1.87.25 1.88.36 1.88.47 1.88.6 1.87.7 1.87.83 1.87.97 1.86 1.1 1.86 1.25 1.84 1.4 1.84 1.6 1.83 1.75 1.8 1.95 1.8 2.16 1.75 2.4 1.7 2.64 1.67 2.92 1.6 3.23 1.5 3.57 1.42 3.96 1.28 4.38 1.13 4.86.57 3.32" stroke="#000" stroke-width="2" fill="none"/><path d="M513 216.06l-.06.94h-2l.06-1.07zM598.4 212.77l-5.74-13.85 9.24-.73z"/><path d="M598.67 216l-7.47-17.97 12-.95zm-4.56-16.2l4.05 9.75 2.45-10.26z"/><use xlink:href="#j" transform="matrix(1,0,0,1,453.0512060533184,156.80670788507922) translate(0 14.4)"/><path d="M140 181v116.76" stroke="#000" stroke-width="2" fill="none"/><path d="M141 181h-2v-1h2zM140 312.76l-4.64-14.26h9.28z"/><path d="M140 316l-6-18.5h12zm-3.26-16.5l3.26 10.03 3.26-10.03z"/><use xlink:href="#k" transform="matrix(1,0,0,1,148,237.7) translate(0 14.4)"/><path d="M60 317h160v120H60z" stroke="#000" stroke-width="2" fill="#ffc374"/><use xlink:href="#l" transform="matrix(1,0,0,1,65,322) translate(41.599999999999994 58.6)"/><path d="M140 438v82.76" stroke="#000" stroke-width="2" fill="none"/><path d="M141 438h-2v-1h2zM140 535.76l-4.64-14.26h9.28z"/><path d="M140 539l-6-18.5h12zm-3.26-16.5l3.26 10.03 3.26-10.03z"/><use xlink:href="#m" transform="matrix(1,0,0,1,148.00000000000003,463.2) translate(0 14.4)"/><path d="M60 540h160v120H60z" stroke="#000" stroke-width="2" fill="#ffc374"/><use xlink:href="#n" transform="matrix(1,0,0,1,65,545) translate(20.074999999999996 58.6)"/><path d="M255.28 601H221v-2h34.28zm145.48 0h-16.03v-2h16.03zM221 601h-1v-2h1zM415.76 600l-14.26 4.64v-9.28z"/><path d="M419 600l-18.5 6v-12zm-16.5 3.26l10.03-3.26-10.03-3.26z"/><use xlink:href="#o" transform="matrix(1,0,0,1,255.275,589.2) translate(0 14.4)"/><path d="M668 820c17.67 0 32 17.9 32 40s-14.33 40-32 40h-96c-17.67 0-32-17.9-32-40s14.33-40 32-40z" stroke="#000" stroke-width="2" fill="#c1e4f7"/><use xlink:href="#p" transform="matrix(1,0,0,1,545,825) translate(36.55 38.6)"/><path d="M221 90l578.76-.97" stroke="#000" stroke-width="2" fill="none"/><path d="M221 91h-1v-2h1zM814.76 89l-14.25 4.66V84.4z"/><path d="M818 89l-18.5 6.04V83.02zm-16.5 3.3l10.03-3.3-10.04-3.23z"/><use xlink:href="#b" transform="matrix(1,0,0,1,454.1079607773404,63.95258407223366) translate(0 14.4)"/><path d="M1042 400c30.93 0 56 17.9 56 40s-25.07 40-56 40H874c-30.93 0-56-17.9-56-40s25.07-40 56-40z" stroke="#000" stroke-width="2" fill="#ffeca9"/><use xlink:href="#q" transform="matrix(1,0,0,1,823,405) translate(18.15000000000002 38.6)"/><path d="M1042 500c30.93 0 56 17.9 56 40s-25.07 40-56 40H874c-30.93 0-56-17.9-56-40s25.07-40 56-40z" stroke="#000" stroke-width="2" fill="#ffeca9"/><use xlink:href="#r" transform="matrix(1,0,0,1,823,505) translate(20.875000000000014 38.6)"/><path d="M1042 700c30.93 0 56 17.9 56 40s-25.07 40-56 40H874c-30.93 0-56-17.9-56-40s25.07-40 56-40z" stroke="#000" stroke-width="2" fill="#ffeca9"/><use xlink:href="#s" transform="matrix(1,0,0,1,823,705) translate(43.099999999999994 38.6)"/><path d="M1042 600c30.93 0 56 17.9 56 40s-25.07 40-56 40H874c-30.93 0-56-17.9-56-40s25.07-40 56-40z" stroke="#000" stroke-width="2" fill="#ffeca9"/><use xlink:href="#t" transform="matrix(1,0,0,1,823,605) translate(45.125 38.6)"/><path d="M817 440h-88V311.33h-69.76" stroke="#000" stroke-width="2" fill="none"/><path d="M818 440l.03 1H817v-2h1.04z"/><path d="M658.5 315.97l-14.26-4.64 14.26-4.63z" fill="#fff"/><path d="M659.5 317.35l-18.5-6.02 18.5-6zm-12.03-6.02l10.03 3.26v-6.53z"/><path d="M817 540h-88V311.33h-69.76" stroke="#000" stroke-width="2" fill="none"/><path d="M818 540l.03 1H817v-2h1.04z"/><path d="M658.5 315.97l-14.26-4.64 14.26-4.63z" fill="#fff"/><path d="M659.5 317.35l-18.5-6.02 18.5-6zm-12.03-6.02l10.03 3.26v-6.53z"/><path d="M817 640h-88V311.33h-69.76" stroke="#000" stroke-width="2" fill="none"/><path d="M818 640l.03 1H817v-2h1.04z"/><path d="M658.5 315.97l-14.26-4.64 14.26-4.63z" fill="#fff"/><path d="M659.5 317.35l-18.5-6.02 18.5-6zm-12.03-6.02l10.03 3.26v-6.53z"/><path d="M817 740h-88V311.33h-69.76" stroke="#000" stroke-width="2" fill="none"/><path d="M818 740l.03 1H817v-2h1.04z"/><path d="M658.5 315.97l-14.26-4.64 14.26-4.63z" fill="#fff"/><path d="M659.5 317.35l-18.5-6.02 18.5-6zm-12.03-6.02l10.03 3.26v-6.53z"/><use xlink:href="#u" transform="matrix(1,0,0,1,661.0498251746438,351.053598165858) translate(0 14.4)"/><path d="M620 338v462.76" stroke="#000" stroke-width="2" fill="none"/><path d="M621 338h-2v-1h2zM620 815.76l-4.64-14.26h9.28z"/><path d="M620 819l-6-18.5h12zm-3.26-16.5l3.26 10.03 3.26-10.03z"/><use xlink:href="#v" transform="matrix(1,0,0,1,498.04999999999995,732.9333333333333) translate(64.01 14.4)"/><use xlink:href="#w" transform="matrix(1,0,0,1,498.04999999999995,732.9333333333333) translate(22.11 36)"/><use xlink:href="#x" transform="matrix(1,0,0,1,498.04999999999995,732.9333333333333) translate(0.010000000000005116 57.6)"/><defs><path d="M30-248c118-7 216 8 213 122C240-48 200 0 122 0H30v-248zM63-27c89 8 146-16 146-99s-60-101-146-95v194" id="y"/><path d="M141-36C126-15 110 5 73 4 37 3 15-17 15-53c-1-64 63-63 125-63 3-35-9-54-41-54-24 1-41 7-42 31l-33-3c5-37 33-52 76-52 45 0 72 20 72 64v82c-1 20 7 32 28 27v20c-31 9-61-2-59-35zM48-53c0 20 12 33 32 33 41-3 63-29 60-74-43 2-92-5-92 41" id="z"/><path d="M59-47c-2 24 18 29 38 22v24C64 9 27 4 27-40v-127H5v-23h24l9-43h21v43h35v23H59v120" id="A"/><path d="M127-220V0H93v-220H8v-28h204v28h-85" id="B"/><path d="M179-190L93 31C79 59 56 82 12 73V49c39 6 53-20 64-50L1-190h34L92-34l54-156h33" id="C"/><path d="M115-194c55 1 70 41 70 98S169 2 115 4C84 4 66-9 55-30l1 105H24l-1-265h31l2 30c10-21 28-34 59-34zm-8 174c40 0 45-34 45-75s-6-73-45-74c-42 0-51 32-51 76 0 43 10 73 51 73" id="D"/><path d="M100-194c63 0 86 42 84 106H49c0 40 14 67 53 68 26 1 43-12 49-29l28 8c-11 28-37 45-77 45C44 4 14-33 15-96c1-61 26-98 85-98zm52 81c6-60-76-77-97-28-3 7-6 17-6 28h103" id="E"/><g id="a"><use transform="matrix(0.05,0,0,0.05,0,0)" xlink:href="#y"/><use transform="matrix(0.05,0,0,0.05,12.950000000000001,0)" xlink:href="#z"/><use transform="matrix(0.05,0,0,0.05,22.950000000000003,0)" xlink:href="#A"/><use transform="matrix(0.05,0,0,0.05,27.950000000000003,0)" xlink:href="#z"/><use transform="matrix(0.05,0,0,0.05,37.95,0)" xlink:href="#B"/><use transform="matrix(0.05,0,0,0.05,47.900000000000006,0)" xlink:href="#C"/><use transform="matrix(0.05,0,0,0.05,56.900000000000006,0)" xlink:href="#D"/><use transform="matrix(0.05,0,0,0.05,66.9,0)" xlink:href="#E"/></g><path d="M24-231v-30h32v30H24zM24 0v-190h32V0H24" id="F"/><path d="M85-194c31 0 48 13 60 33l-1-100h32l1 261h-30c-2-10 0-23-3-31C134-8 116 4 85 4 32 4 16-35 15-94c0-66 23-100 70-100zm9 24c-40 0-46 34-46 75 0 40 6 74 45 74 42 0 51-32 51-76 0-42-9-74-50-73" id="G"/><path d="M117-194c89-4 53 116 60 194h-32v-121c0-31-8-49-39-48C34-167 62-67 57 0H25l-1-190h30c1 10-1 24 2 32 11-22 29-35 61-36" id="H"/><path d="M101-234c-31-9-42 10-38 44h38v23H63V0H32v-167H5v-23h27c-7-52 17-82 69-68v24" id="I"/><path d="M114-163C36-179 61-72 57 0H25l-1-190h30c1 12-1 29 2 39 6-27 23-49 58-41v29" id="J"/><g id="b"><use transform="matrix(0.05,0,0,0.05,0,0)" xlink:href="#F"/><use transform="matrix(0.05,0,0,0.05,3.95,0)" xlink:href="#G"/><use transform="matrix(0.05,0,0,0.05,13.949999999999998,0)" xlink:href="#E"/><use transform="matrix(0.05,0,0,0.05,23.95,0)" xlink:href="#H"/><use transform="matrix(0.05,0,0,0.05,33.95,0)" xlink:href="#A"/><use transform="matrix(0.05,0,0,0.05,38.95,0)" xlink:href="#F"/><use transform="matrix(0.05,0,0,0.05,42.900000000000006,0)" xlink:href="#I"/><use transform="matrix(0.05,0,0,0.05,47.900000000000006,0)" xlink:href="#F"/><use transform="matrix(0.05,0,0,0.05,51.85,0)" xlink:href="#E"/><use transform="matrix(0.05,0,0,0.05,61.85,0)" xlink:href="#J"/></g><path d="M33 0v-248h34V0H33" id="K"/><g id="c"><use transform="matrix(0.05,0,0,0.05,0,0)" xlink:href="#K"/><use transform="matrix(0.05,0,0,0.05,5,0)" xlink:href="#G"/><use transform="matrix(0.05,0,0,0.05,15,0)" xlink:href="#E"/><use transform="matrix(0.05,0,0,0.05,25,0)" xlink:href="#H"/><use transform="matrix(0.05,0,0,0.05,35,0)" xlink:href="#A"/><use transform="matrix(0.05,0,0,0.05,40,0)" xlink:href="#F"/><use transform="matrix(0.05,0,0,0.05,43.95,0)" xlink:href="#I"/><use transform="matrix(0.05,0,0,0.05,48.95,0)" xlink:href="#F"/><use transform="matrix(0.05,0,0,0.05,52.900000000000006,0)" xlink:href="#E"/><use transform="matrix(0.05,0,0,0.05,62.900000000000006,0)" xlink:href="#J"/></g><path d="M135-143c-3-34-86-38-87 0 15 53 115 12 119 90S17 21 10-45l28-5c4 36 97 45 98 0-10-56-113-15-118-90-4-57 82-63 122-42 12 7 21 19 24 35" id="L"/><path d="M84 4C-5 8 30-112 23-190h32v120c0 31 7 50 39 49 72-2 45-101 50-169h31l1 190h-30c-1-10 1-25-2-33-11 22-28 36-60 37" id="M"/><path d="M115-194c53 0 69 39 70 98 0 66-23 100-70 100C84 3 66-7 56-30L54 0H23l1-261h32v101c10-23 28-34 59-34zm-8 174c40 0 45-34 45-75 0-40-5-75-45-74-42 0-51 32-51 76 0 43 10 73 51 73" id="N"/><path d="M24-231v-30h32v30H24zM-9 49c24 4 33-6 33-30v-209h32V24c2 40-23 58-65 49V49" id="O"/><path d="M96-169c-40 0-48 33-48 73s9 75 48 75c24 0 41-14 43-38l32 2c-6 37-31 61-74 61-59 0-76-41-82-99-10-93 101-131 147-64 4 7 5 14 7 22l-32 3c-4-21-16-35-41-35" id="P"/><path d="M205 0l-28-72H64L36 0H1l101-248h38L239 0h-34zm-38-99l-47-123c-12 45-31 82-46 123h93" id="Q"/><g id="d"><use transform="matrix(0.05,0,0,0.05,0,0)" xlink:href="#L"/><use transform="matrix(0.05,0,0,0.05,9,0)" xlink:href="#M"/><use transform="matrix(0.05,0,0,0.05,19,0)" xlink:href="#N"/><use transform="matrix(0.05,0,0,0.05,29,0)" xlink:href="#O"/><use transform="matrix(0.05,0,0,0.05,32.95,0)" xlink:href="#E"/><use transform="matrix(0.05,0,0,0.05,42.95,0)" xlink:href="#P"/><use transform="matrix(0.05,0,0,0.05,51.95,0)" xlink:href="#A"/><use transform="matrix(0.05,0,0,0.05,56.95,0)" xlink:href="#Q"/><use transform="matrix(0.05,0,0,0.05,68.95,0)" xlink:href="#J"/><use transform="matrix(0.05,0,0,0.05,74.9,0)" xlink:href="#E"/><use transform="matrix(0.05,0,0,0.05,84.9,0)" xlink:href="#z"/></g><path d="M185-189c-5-48-123-54-124 2 14 75 158 14 163 119 3 78-121 87-175 55-17-10-28-26-33-46l33-7c5 56 141 63 141-1 0-78-155-14-162-118-5-82 145-84 179-34 5 7 8 16 11 25" id="R"/><g id="e"><use transform="matrix(0.05,0,0,0.05,0,0)" xlink:href="#R"/><use transform="matrix(0.05,0,0,0.05,12,0)" xlink:href="#M"/><use transform="matrix(0.05,0,0,0.05,22,0)" xlink:href="#N"/><use transform="matrix(0.05,0,0,0.05,32,0)" xlink:href="#O"/><use transform="matrix(0.05,0,0,0.05,35.95,0)" xlink:href="#E"/><use transform="matrix(0.05,0,0,0.05,45.95,0)" xlink:href="#P"/><use transform="matrix(0.05,0,0,0.05,54.95,0)" xlink:href="#A"/><use transform="matrix(0.05,0,0,0.05,59.95,0)" xlink:href="#Q"/><use transform="matrix(0.05,0,0,0.05,71.95,0)" xlink:href="#J"/><use transform="matrix(0.05,0,0,0.05,77.9,0)" xlink:href="#E"/><use transform="matrix(0.05,0,0,0.05,87.9,0)" xlink:href="#z"/></g><path d="M210-169c-67 3-38 105-44 169h-31v-121c0-29-5-50-35-48C34-165 62-65 56 0H25l-1-190h30c1 10-1 24 2 32 10-44 99-50 107 0 11-21 27-35 58-36 85-2 47 119 55 194h-31v-121c0-29-5-49-35-48" id="S"/><g id="f"><use transform="matrix(0.05,0,0,0.05,0,0)" xlink:href="#S"/><use transform="matrix(0.05,0,0,0.05,14.950000000000001,0)" xlink:href="#E"/><use transform="matrix(0.05,0,0,0.05,24.950000000000003,0)" xlink:href="#z"/><use transform="matrix(0.05,0,0,0.05,34.95,0)" xlink:href="#L"/><use transform="matrix(0.05,0,0,0.05,43.95,0)" xlink:href="#M"/><use transform="matrix(0.05,0,0,0.05,53.95,0)" xlink:href="#J"/><use transform="matrix(0.05,0,0,0.05,59.900000000000006,0)" xlink:href="#E"/><use transform="matrix(0.05,0,0,0.05,69.9,0)" xlink:href="#L"/></g><path d="M30-248c87 1 191-15 191 75 0 78-77 80-158 76V0H30v-248zm33 125c57 0 124 11 124-50 0-59-68-47-124-48v98" id="T"/><g id="g"><use transform="matrix(0.05,0,0,0.05,0,0)" xlink:href="#T"/><use transform="matrix(0.05,0,0,0.05,12,0)" xlink:href="#z"/><use transform="matrix(0.05,0,0,0.05,22,0)" xlink:href="#J"/><use transform="matrix(0.05,0,0,0.05,27.950000000000003,0)" xlink:href="#z"/><use transform="matrix(0.05,0,0,0.05,37.95,0)" xlink:href="#S"/><use transform="matrix(0.05,0,0,0.05,52.900000000000006,0)" xlink:href="#E"/><use transform="matrix(0.05,0,0,0.05,62.900000000000006,0)" xlink:href="#A"/><use transform="matrix(0.05,0,0,0.05,67.9,0)" xlink:href="#E"/><use transform="matrix(0.05,0,0,0.05,77.9,0)" xlink:href="#J"/></g><g id="h"><use transform="matrix(0.05,0,0,0.05,0,0)" xlink:href="#y"/><use transform="matrix(0.05,0,0,0.05,12.950000000000001,0)" xlink:href="#z"/><use transform="matrix(0.05,0,0,0.05,22.950000000000003,0)" xlink:href="#A"/><use transform="matrix(0.05,0,0,0.05,27.950000000000003,0)" xlink:href="#z"/><use transform="matrix(0.05,0,0,0.05,37.95,0)" xlink:href="#L"/><use transform="matrix(0.05,0,0,0.05,46.95,0)" xlink:href="#E"/><use transform="matrix(0.05,0,0,0.05,56.95,0)" xlink:href="#A"/></g><g id="i"><use transform="matrix(0.05,0,0,0.05,0,0)" xlink:href="#G"/><use transform="matrix(0.05,0,0,0.05,10,0)" xlink:href="#z"/><use transform="matrix(0.05,0,0,0.05,20,0)" xlink:href="#A"/><use transform="matrix(0.05,0,0,0.05,25,0)" xlink:href="#z"/><use transform="matrix(0.05,0,0,0.05,35,0)" xlink:href="#A"/><use transform="matrix(0.05,0,0,0.05,40,0)" xlink:href="#C"/><use transform="matrix(0.05,0,0,0.05,49,0)" xlink:href="#D"/><use transform="matrix(0.05,0,0,0.05,59,0)" xlink:href="#E"/></g><path d="M141 0L90-78 38 0H4l68-98-65-92h35l48 74 47-74h35l-64 92 68 98h-35" id="U"/><g id="j"><use transform="matrix(0.05,0,0,0.05,0,0)" xlink:href="#E"/><use transform="matrix(0.05,0,0,0.05,10,0)" xlink:href="#U"/><use transform="matrix(0.05,0,0,0.05,19,0)" xlink:href="#A"/><use transform="matrix(0.05,0,0,0.05,24,0)" xlink:href="#E"/><use transform="matrix(0.05,0,0,0.05,34,0)" xlink:href="#H"/><use transform="matrix(0.05,0,0,0.05,44,0)" xlink:href="#G"/><use transform="matrix(0.05,0,0,0.05,54,0)" xlink:href="#L"/></g><path d="M24 0v-261h32V0H24" id="V"/><g id="k"><use transform="matrix(0.05,0,0,0.05,0,0)" xlink:href="#G"/><use transform="matrix(0.05,0,0,0.05,10,0)" xlink:href="#z"/><use transform="matrix(0.05,0,0,0.05,20,0)" xlink:href="#A"/><use transform="matrix(0.05,0,0,0.05,25,0)" xlink:href="#z"/><use transform="matrix(0.05,0,0,0.05,35,0)" xlink:href="#I"/><use transform="matrix(0.05,0,0,0.05,40,0)" xlink:href="#F"/><use transform="matrix(0.05,0,0,0.05,43.95,0)" xlink:href="#V"/><use transform="matrix(0.05,0,0,0.05,47.900000000000006,0)" xlink:href="#E"/></g><path d="M63-220v92h138v28H63V0H30v-248h175v28H63" id="W"/><g id="l"><use transform="matrix(0.05,0,0,0.05,0,0)" xlink:href="#y"/><use transform="matrix(0.05,0,0,0.05,12.950000000000001,0)" xlink:href="#z"/><use transform="matrix(0.05,0,0,0.05,22.950000000000003,0)" xlink:href="#A"/><use transform="matrix(0.05,0,0,0.05,27.950000000000003,0)" xlink:href="#z"/><use transform="matrix(0.05,0,0,0.05,37.95,0)" xlink:href="#W"/><use transform="matrix(0.05,0,0,0.05,48.900000000000006,0)" xlink:href="#F"/><use transform="matrix(0.05,0,0,0.05,52.85,0)" xlink:href="#V"/><use transform="matrix(0.05,0,0,0.05,56.80000000000001,0)" xlink:href="#E"/></g><path d="M100-194c62-1 85 37 85 99 1 63-27 99-86 99S16-35 15-95c0-66 28-99 85-99zM99-20c44 1 53-31 53-75 0-43-8-75-51-75s-53 32-53 75 10 74 51 75" id="X"/><path d="M240 0l2-218c-23 76-54 145-80 218h-23L58-218 59 0H30v-248h44l77 211c21-75 51-140 76-211h43V0h-30" id="Y"/><g id="m"><use transform="matrix(0.05,0,0,0.05,0,0)" xlink:href="#J"/><use transform="matrix(0.05,0,0,0.05,5.95,0)" xlink:href="#E"/><use transform="matrix(0.05,0,0,0.05,15.949999999999998,0)" xlink:href="#P"/><use transform="matrix(0.05,0,0,0.05,24.95,0)" xlink:href="#X"/><use transform="matrix(0.05,0,0,0.05,34.95,0)" xlink:href="#J"/><use transform="matrix(0.05,0,0,0.05,40.900000000000006,0)" xlink:href="#G"/><use transform="matrix(0.05,0,0,0.05,50.900000000000006,0)" xlink:href="#L"/><use transform="matrix(0.05,0,0,0.05,59.900000000000006,0)" xlink:href="#Y"/><use transform="matrix(0.05,0,0,0.05,74.85000000000001,0)" xlink:href="#E"/><use transform="matrix(0.05,0,0,0.05,84.85000000000001,0)" xlink:href="#z"/><use transform="matrix(0.05,0,0,0.05,94.85000000000001,0)" xlink:href="#L"/><use transform="matrix(0.05,0,0,0.05,103.85000000000001,0)" xlink:href="#M"/><use transform="matrix(0.05,0,0,0.05,113.85000000000001,0)" xlink:href="#J"/><use transform="matrix(0.05,0,0,0.05,119.80000000000001,0)" xlink:href="#E"/><use transform="matrix(0.05,0,0,0.05,129.8,0)" xlink:href="#S"/><use transform="matrix(0.05,0,0,0.05,144.75,0)" xlink:href="#E"/><use transform="matrix(0.05,0,0,0.05,154.75,0)" xlink:href="#H"/><use transform="matrix(0.05,0,0,0.05,164.75,0)" xlink:href="#A"/></g><g id="n"><use transform="matrix(0.05,0,0,0.05,0,0)" xlink:href="#Y"/><use transform="matrix(0.05,0,0,0.05,14.950000000000001,0)" xlink:href="#E"/><use transform="matrix(0.05,0,0,0.05,24.950000000000003,0)" xlink:href="#z"/><use transform="matrix(0.05,0,0,0.05,34.95,0)" xlink:href="#L"/><use transform="matrix(0.05,0,0,0.05,43.95,0)" xlink:href="#M"/><use transform="matrix(0.05,0,0,0.05,53.95,0)" xlink:href="#J"/><use transform="matrix(0.05,0,0,0.05,59.900000000000006,0)" xlink:href="#E"/><use transform="matrix(0.05,0,0,0.05,69.9,0)" xlink:href="#S"/><use transform="matrix(0.05,0,0,0.05,84.85000000000001,0)" xlink:href="#E"/><use transform="matrix(0.05,0,0,0.05,94.85000000000001,0)" xlink:href="#H"/><use transform="matrix(0.05,0,0,0.05,104.85000000000001,0)" xlink:href="#A"/></g><path d="M137 0h-34L2-248h35l83 218 83-218h36" id="Z"/><g id="o"><use transform="matrix(0.05,0,0,0.05,0,0)" xlink:href="#L"/><use transform="matrix(0.05,0,0,0.05,9,0)" xlink:href="#A"/><use transform="matrix(0.05,0,0,0.05,14,0)" xlink:href="#X"/><use transform="matrix(0.05,0,0,0.05,24,0)" xlink:href="#J"/><use transform="matrix(0.05,0,0,0.05,29.950000000000003,0)" xlink:href="#E"/><use transform="matrix(0.05,0,0,0.05,39.95,0)" xlink:href="#L"/><use transform="matrix(0.05,0,0,0.05,48.95,0)" xlink:href="#Z"/><use transform="matrix(0.05,0,0,0.05,59.6,0)" xlink:href="#z"/><use transform="matrix(0.05,0,0,0.05,69.6,0)" xlink:href="#V"/><use transform="matrix(0.05,0,0,0.05,73.55,0)" xlink:href="#M"/><use transform="matrix(0.05,0,0,0.05,83.55,0)" xlink:href="#E"/><use transform="matrix(0.05,0,0,0.05,93.55,0)" xlink:href="#L"/><use transform="matrix(0.05,0,0,0.05,102.55000000000001,0)" xlink:href="#W"/><use transform="matrix(0.05,0,0,0.05,113.5,0)" xlink:href="#X"/><use transform="matrix(0.05,0,0,0.05,123.5,0)" xlink:href="#J"/></g><path d="M33-154v-36h34v36H33zM33 0v-36h34V0H33" id="aa"/><path d="M177-190C167-65 218 103 67 71c-23-6-38-20-44-43l32-5c15 47 100 32 89-28v-30C133-14 115 1 83 1 29 1 15-40 15-95c0-56 16-97 71-98 29-1 48 16 59 35 1-10 0-23 2-32h30zM94-22c36 0 50-32 50-73 0-42-14-75-50-75-39 0-46 34-46 75s6 73 46 73" id="ab"/><g id="p"><use transform="matrix(0.05,0,0,0.05,0,0)" xlink:href="#U"/><use transform="matrix(0.05,0,0,0.05,9,0)" xlink:href="#L"/><use transform="matrix(0.05,0,0,0.05,18,0)" xlink:href="#G"/><use transform="matrix(0.05,0,0,0.05,28,0)" xlink:href="#aa"/><use transform="matrix(0.05,0,0,0.05,33,0)" xlink:href="#L"/><use transform="matrix(0.05,0,0,0.05,42,0)" xlink:href="#A"/><use transform="matrix(0.05,0,0,0.05,47,0)" xlink:href="#J"/><use transform="matrix(0.05,0,0,0.05,52.95,0)" xlink:href="#F"/><use transform="matrix(0.05,0,0,0.05,56.900000000000006,0)" xlink:href="#H"/><use transform="matrix(0.05,0,0,0.05,66.9,0)" xlink:href="#ab"/></g><path d="M140-251c81 0 123 46 123 126C263-46 219 4 140 4 59 4 17-45 17-125s42-126 123-126zm0 227c63 0 89-41 89-101s-29-99-89-99c-61 0-89 39-89 99S79-25 140-24" id="ac"/><g id="q"><use transform="matrix(0.05,0,0,0.05,0,0)" xlink:href="#ac"/><use transform="matrix(0.05,0,0,0.05,14,0)" xlink:href="#P"/><use transform="matrix(0.05,0,0,0.05,23,0)" xlink:href="#E"/><use transform="matrix(0.05,0,0,0.05,33,0)" xlink:href="#z"/><use transform="matrix(0.05,0,0,0.05,43,0)" xlink:href="#H"/><use transform="matrix(0.05,0,0,0.05,53,0)" xlink:href="#T"/><use transform="matrix(0.05,0,0,0.05,65,0)" xlink:href="#J"/><use transform="matrix(0.05,0,0,0.05,70.95,0)" xlink:href="#X"/><use transform="matrix(0.05,0,0,0.05,80.95,0)" xlink:href="#A"/><use transform="matrix(0.05,0,0,0.05,85.95,0)" xlink:href="#E"/><use transform="matrix(0.05,0,0,0.05,95.95,0)" xlink:href="#F"/><use transform="matrix(0.05,0,0,0.05,99.9,0)" xlink:href="#H"/><use transform="matrix(0.05,0,0,0.05,109.9,0)" xlink:href="#T"/><use transform="matrix(0.05,0,0,0.05,121.9,0)" xlink:href="#X"/><use transform="matrix(0.05,0,0,0.05,131.9,0)" xlink:href="#J"/><use transform="matrix(0.05,0,0,0.05,137.85,0)" xlink:href="#A"/><use transform="matrix(0.05,0,0,0.05,142.85,0)" xlink:href="#z"/><use transform="matrix(0.05,0,0,0.05,152.85,0)" xlink:href="#V"/><use transform="matrix(0.05,0,0,0.05,156.79999999999998,0)" xlink:href="#y"/><use transform="matrix(0.05,0,0,0.05,169.74999999999997,0)" xlink:href="#z"/><use transform="matrix(0.05,0,0,0.05,179.74999999999997,0)" xlink:href="#A"/><use transform="matrix(0.05,0,0,0.05,184.74999999999997,0)" xlink:href="#z"/><use transform="matrix(0.05,0,0,0.05,194.74999999999997,0)" xlink:href="#B"/><use transform="matrix(0.05,0,0,0.05,204.69999999999996,0)" xlink:href="#C"/><use transform="matrix(0.05,0,0,0.05,213.69999999999996,0)" xlink:href="#D"/><use transform="matrix(0.05,0,0,0.05,223.69999999999996,0)" xlink:href="#E"/></g><path d="M16-82v-28h88v28H16" id="ad"/><g id="r"><use transform="matrix(0.05,0,0,0.05,0,0)" xlink:href="#W"/><use transform="matrix(0.05,0,0,0.05,9.950000000000001,0)" xlink:href="#Q"/><use transform="matrix(0.05,0,0,0.05,21.950000000000003,0)" xlink:href="#R"/><use transform="matrix(0.05,0,0,0.05,33.95,0)" xlink:href="#B"/><use transform="matrix(0.05,0,0,0.05,43.550000000000004,0)" xlink:href="#Q"/><use transform="matrix(0.05,0,0,0.05,55.550000000000004,0)" xlink:href="#ad"/><use transform="matrix(0.05,0,0,0.05,61.5,0)" xlink:href="#T"/><use transform="matrix(0.05,0,0,0.05,73.5,0)" xlink:href="#J"/><use transform="matrix(0.05,0,0,0.05,79.45,0)" xlink:href="#X"/><use transform="matrix(0.05,0,0,0.05,89.45,0)" xlink:href="#A"/><use transform="matrix(0.05,0,0,0.05,94.45,0)" xlink:href="#E"/><use transform="matrix(0.05,0,0,0.05,104.45,0)" xlink:href="#F"/><use transform="matrix(0.05,0,0,0.05,108.4,0)" xlink:href="#H"/><use transform="matrix(0.05,0,0,0.05,118.4,0)" xlink:href="#K"/><use transform="matrix(0.05,0,0,0.05,123.4,0)" xlink:href="#G"/><use transform="matrix(0.05,0,0,0.05,133.4,0)" xlink:href="#E"/><use transform="matrix(0.05,0,0,0.05,143.4,0)" xlink:href="#H"/><use transform="matrix(0.05,0,0,0.05,153.4,0)" xlink:href="#A"/><use transform="matrix(0.05,0,0,0.05,158.4,0)" xlink:href="#F"/><use transform="matrix(0.05,0,0,0.05,162.35,0)" xlink:href="#I"/><use transform="matrix(0.05,0,0,0.05,167.35,0)" xlink:href="#F"/><use transform="matrix(0.05,0,0,0.05,171.29999999999998,0)" xlink:href="#P"/><use transform="matrix(0.05,0,0,0.05,180.29999999999998,0)" xlink:href="#z"/><use transform="matrix(0.05,0,0,0.05,190.29999999999998,0)" xlink:href="#A"/><use transform="matrix(0.05,0,0,0.05,195.29999999999998,0)" xlink:href="#F"/><use transform="matrix(0.05,0,0,0.05,199.24999999999997,0)" xlink:href="#X"/><use transform="matrix(0.05,0,0,0.05,209.24999999999997,0)" xlink:href="#H"/><use transform="matrix(0.05,0,0,0.05,219.24999999999997,0)" xlink:href="#L"/></g><path d="M212-179c-10-28-35-45-73-45-59 0-87 40-87 99 0 60 29 101 89 101 43 0 62-24 78-52l27 14C228-24 195 4 139 4 59 4 22-46 18-125c-6-104 99-153 187-111 19 9 31 26 39 46" id="ae"/><g id="s"><use transform="matrix(0.05,0,0,0.05,0,0)" xlink:href="#T"/><use transform="matrix(0.05,0,0,0.05,12,0)" xlink:href="#E"/><use transform="matrix(0.05,0,0,0.05,22,0)" xlink:href="#D"/><use transform="matrix(0.05,0,0,0.05,32,0)" xlink:href="#A"/><use transform="matrix(0.05,0,0,0.05,37,0)" xlink:href="#F"/><use transform="matrix(0.05,0,0,0.05,40.95,0)" xlink:href="#G"/><use transform="matrix(0.05,0,0,0.05,50.95,0)" xlink:href="#E"/><use transform="matrix(0.05,0,0,0.05,60.95,0)" xlink:href="#R"/><use transform="matrix(0.05,0,0,0.05,72.95,0)" xlink:href="#D"/><use transform="matrix(0.05,0,0,0.05,82.95,0)" xlink:href="#E"/><use transform="matrix(0.05,0,0,0.05,92.95,0)" xlink:href="#P"/><use transform="matrix(0.05,0,0,0.05,101.95,0)" xlink:href="#A"/><use transform="matrix(0.05,0,0,0.05,106.95,0)" xlink:href="#J"/><use transform="matrix(0.05,0,0,0.05,112.9,0)" xlink:href="#z"/><use transform="matrix(0.05,0,0,0.05,122.9,0)" xlink:href="#V"/><use transform="matrix(0.05,0,0,0.05,126.85000000000001,0)" xlink:href="#ae"/><use transform="matrix(0.05,0,0,0.05,139.8,0)" xlink:href="#X"/><use transform="matrix(0.05,0,0,0.05,149.8,0)" xlink:href="#M"/><use transform="matrix(0.05,0,0,0.05,159.8,0)" xlink:href="#H"/><use transform="matrix(0.05,0,0,0.05,169.8,0)" xlink:href="#A"/><use transform="matrix(0.05,0,0,0.05,174.8,0)" xlink:href="#L"/></g><g id="t"><use transform="matrix(0.05,0,0,0.05,0,0)" xlink:href="#T"/><use transform="matrix(0.05,0,0,0.05,12,0)" xlink:href="#J"/><use transform="matrix(0.05,0,0,0.05,17.95,0)" xlink:href="#X"/><use transform="matrix(0.05,0,0,0.05,27.950000000000003,0)" xlink:href="#A"/><use transform="matrix(0.05,0,0,0.05,32.95,0)" xlink:href="#E"/><use transform="matrix(0.05,0,0,0.05,42.95,0)" xlink:href="#F"/><use transform="matrix(0.05,0,0,0.05,46.900000000000006,0)" xlink:href="#H"/><use transform="matrix(0.05,0,0,0.05,56.900000000000006,0)" xlink:href="#R"/><use transform="matrix(0.05,0,0,0.05,68.9,0)" xlink:href="#D"/><use transform="matrix(0.05,0,0,0.05,78.9,0)" xlink:href="#E"/><use transform="matrix(0.05,0,0,0.05,88.9,0)" xlink:href="#P"/><use transform="matrix(0.05,0,0,0.05,97.9,0)" xlink:href="#A"/><use transform="matrix(0.05,0,0,0.05,102.9,0)" xlink:href="#J"/><use transform="matrix(0.05,0,0,0.05,108.85000000000001,0)" xlink:href="#z"/><use transform="matrix(0.05,0,0,0.05,118.85000000000001,0)" xlink:href="#V"/><use transform="matrix(0.05,0,0,0.05,122.80000000000001,0)" xlink:href="#ae"/><use transform="matrix(0.05,0,0,0.05,135.75,0)" xlink:href="#X"/><use transform="matrix(0.05,0,0,0.05,145.75,0)" xlink:href="#M"/><use transform="matrix(0.05,0,0,0.05,155.75,0)" xlink:href="#H"/><use transform="matrix(0.05,0,0,0.05,165.75,0)" xlink:href="#A"/><use transform="matrix(0.05,0,0,0.05,170.75,0)" xlink:href="#L"/></g><g id="u"><use transform="matrix(0.05,0,0,0.05,0,0)" xlink:href="#J"/><use transform="matrix(0.05,0,0,0.05,5.95,0)" xlink:href="#G"/><use transform="matrix(0.05,0,0,0.05,15.949999999999998,0)" xlink:href="#I"/><use transform="matrix(0.05,0,0,0.05,20.95,0)" xlink:href="#aa"/><use transform="matrix(0.05,0,0,0.05,25.950000000000003,0)" xlink:href="#A"/><use transform="matrix(0.05,0,0,0.05,30.950000000000003,0)" xlink:href="#C"/><use transform="matrix(0.05,0,0,0.05,39.95,0)" xlink:href="#D"/><use transform="matrix(0.05,0,0,0.05,49.95,0)" xlink:href="#E"/></g><path d="M68-38c1 34 0 65-14 84H32c9-13 17-26 17-46H33v-38h35" id="af"/><g id="v"><use transform="matrix(0.05,0,0,0.05,0,0)" xlink:href="#H"/><use transform="matrix(0.05,0,0,0.05,10,0)" xlink:href="#z"/><use transform="matrix(0.05,0,0,0.05,20,0)" xlink:href="#S"/><use transform="matrix(0.05,0,0,0.05,34.95,0)" xlink:href="#E"/><use transform="matrix(0.05,0,0,0.05,44.95,0)" xlink:href="#af"/></g><g id="w"><use transform="matrix(0.05,0,0,0.05,0,0)" xlink:href="#G"/><use transform="matrix(0.05,0,0,0.05,10,0)" xlink:href="#E"/><use transform="matrix(0.05,0,0,0.05,20,0)" xlink:href="#L"/><use transform="matrix(0.05,0,0,0.05,29,0)" xlink:href="#P"/><use transform="matrix(0.05,0,0,0.05,38,0)" xlink:href="#J"/><use transform="matrix(0.05,0,0,0.05,43.95,0)" xlink:href="#F"/><use transform="matrix(0.05,0,0,0.05,47.900000000000006,0)" xlink:href="#D"/><use transform="matrix(0.05,0,0,0.05,57.900000000000006,0)" xlink:href="#A"/><use transform="matrix(0.05,0,0,0.05,62.900000000000006,0)" xlink:href="#F"/><use transform="matrix(0.05,0,0,0.05,66.85000000000001,0)" xlink:href="#X"/><use transform="matrix(0.05,0,0,0.05,76.85000000000001,0)" xlink:href="#H"/><use transform="matrix(0.05,0,0,0.05,86.85000000000001,0)" xlink:href="#af"/></g><path d="M232-93c-1 65-40 97-104 97C67 4 28-28 28-90v-158h33c8 89-33 224 67 224 102 0 64-133 71-224h33v155" id="ag"/><g id="x"><use transform="matrix(0.05,0,0,0.05,0,0)" xlink:href="#E"/><use transform="matrix(0.05,0,0,0.05,10,0)" xlink:href="#U"/><use transform="matrix(0.05,0,0,0.05,19,0)" xlink:href="#D"/><use transform="matrix(0.05,0,0,0.05,29,0)" xlink:href="#E"/><use transform="matrix(0.05,0,0,0.05,39,0)" xlink:href="#P"/><use transform="matrix(0.05,0,0,0.05,48,0)" xlink:href="#A"/><use transform="matrix(0.05,0,0,0.05,53,0)" xlink:href="#E"/><use transform="matrix(0.05,0,0,0.05,63,0)" xlink:href="#G"/><use transform="matrix(0.05,0,0,0.05,73,0)" xlink:href="#ag"/><use transform="matrix(0.05,0,0,0.05,85.95,0)" xlink:href="#L"/><use transform="matrix(0.05,0,0,0.05,94.95,0)" xlink:href="#E"/><use transform="matrix(0.05,0,0,0.05,104.95,0)" xlink:href="#L"/></g></defs></g></svg>